# xmcd
#
# Track frame offsets: 
#        150
#        21881
#        47236
#        64164
#        86928
#        107103
#        122915
#        144475
#        166792
#        184093
#        207137
#        240514
#        268545
#        301694
#        315427
#
# Disc length: 4510 seconds
#
# Revision: 0
# Processed by: cddbd v1.5.2PL0 Copyright (c) Steve Scherf et al.
# Submitted via: ExactAudioCopy v1.0b4
#
DISCID=ca119c0f
DTITLE=Keb' Mo' - A Better Man
DYEAR=2016
DGENRE=Blues
TTITLE0=Muddy Water (Live)
TTITLE1=Perpetual Blues Machine (Live)
TTITLE2=Government Cheese (Live)
TTITLE3=More Than One Way Home (Live)
TTITLE4=All The Way (Live)
TTITLE5=Inside Outside (Live)
TTITLE6=Soon As I Get Paid (Live)
TTITLE7=We Don't Need It (Live)
TTITLE8=The Whole Enchilada (Live)
TTITLE9=Shave Your Legs (Live)
TTITLE10=Dangerous Mood (Live)
TTITLE11=Gimme What You Got (Live)
TTITLE12=The Door (Live)
TTITLE13=Am I Wrong (Live)
TTITLE14=A Better Man (Live)
EXTD=
EXTT0=
EXTT1=
EXTT2=
EXTT3=
EXTT4=
EXTT5=
EXTT6=
EXTT7=
EXTT8=
EXTT9=
EXTT10=
EXTT11=
EXTT12=
EXTT13=
EXTT14=
PLAYORDER=
